<svg id="svg" version="1.1" xmlns="http://www.w3.org/2000/svg" xmlns:xlink="http://www.w3.org/1999/xlink" width="400" height="335.7142857142857" viewBox="0, 0, 400,335.7142857142857"><g id="svgg"><path id="path0" d="M130.479 207.095 C 121.138 208.085,108.897 212.848,94.542 221.079 C 82.407 228.037,81.218 229.073,80.747 233.094 C 79.874 240.545,91.389 256.711,108.480 272.028 C 126.574 288.244,151.435 300.055,176.658 304.419 C 192.994 307.245,212.054 306.821,228.971 303.254 C 265.270 295.602,299.238 271.625,317.891 240.489 C 323.034 231.904,315.427 223.669,304.691 226.200 C 300.188 227.262,296.124 230.149,285.866 239.577 C 283.463 241.785,282.452 242.514,282.452 242.037 C 282.452 241.976,284.421 239.368,286.827 236.244 C 289.234 233.119,291.652 229.669,292.201 228.578 C 295.460 222.096,290.550 215.728,282.805 216.391 C 277.927 216.809,275.174 218.551,265.853 227.120 C 261.682 230.954,260.514 231.668,262.352 229.257 C 272.384 216.101,272.817 215.032,269.592 211.359 C 264.759 205.855,258.168 207.623,246.174 217.641 C 239.166 223.495,238.430 223.754,242.866 218.808 C 247.739 213.375,247.851 209.951,243.231 207.671 C 238.334 205.255,235.148 206.823,219.393 219.408 C 216.205 221.954,211.784 225.338,209.567 226.927 C 206.522 229.109,205.622 229.919,205.886 230.237 C 206.189 230.603,210.067 231.942,212.594 232.554 C 220.986 234.587,228.885 237.104,234.673 239.589 C 251.523 246.824,255.707 263.470,243.601 275.109 C 234.705 283.662,218.734 281.976,193.134 269.783 C 182.965 264.939,177.834 262.991,164.232 258.808 C 160.482 257.655,159.185 256.528,159.708 254.880 C 160.726 251.673,171.601 254.088,188.581 261.291 C 200.944 266.536,203.209 267.464,208.306 269.375 C 227.464 276.555,237.807 275.615,242.404 266.276 C 248.394 254.111,237.843 243.806,213.927 238.461 C 200.850 235.539,199.744 234.985,179.009 220.974 C 163.928 210.784,145.473 205.506,130.479 207.095 M332.198 293.554 C 327.006 295.397,324.010 300.269,324.573 305.950 C 325.522 315.529,336.874 319.733,343.941 313.124 C 352.986 304.663,343.840 289.420,332.198 293.554 M339.720 296.079 C 345.550 298.845,346.675 307.805,341.703 311.879 C 335.718 316.783,327.120 312.601,327.120 304.786 C 327.120 297.896,333.808 293.273,339.720 296.079 M332.382 298.125 C 332.259 298.248,332.158 301.195,332.158 304.674 L 332.158 310.999 333.501 310.999 L 334.845 310.999 334.845 308.620 C 334.845 305.664,335.206 305.687,336.985 308.756 C 338.279 310.988,338.293 310.999,339.767 310.999 C 341.462 310.999,341.475 311.095,339.328 307.718 C 338.151 305.866,337.967 305.290,338.555 305.290 C 340.347 305.290,341.212 301.244,339.797 299.479 C 338.781 298.211,333.297 297.210,332.382 298.125 M337.643 300.945 C 338.533 302.216,337.360 303.946,335.610 303.946 C 334.906 303.946,334.845 303.797,334.845 302.099 L 334.845 300.252 336.001 300.252 C 336.789 300.252,337.312 300.473,337.643 300.945 " stroke="none" fill="#1c3b7a" fill-rule="evenodd"></path><path id="path1" d="M192.611 28.746 C 180.524 29.644,176.250 30.295,166.079 32.788 C 161.592 33.888,155.329 35.768,152.813 36.771 C 152.166 37.028,150.277 37.766,148.615 38.409 C 88.508 61.670,52.153 126.548,63.147 190.932 C 64.625 199.589,67.962 211.671,70.391 217.164 C 71.434 219.523,71.951 219.524,76.945 217.176 C 79.050 216.187,81.748 214.940,82.939 214.406 C 92.294 210.212,91.990 210.679,89.688 204.030 C 81.292 179.789,81.811 152.162,91.146 126.448 C 98.492 106.211,113.322 86.869,131.990 73.175 C 134.848 71.079,138.667 68.514,138.931 68.514 C 139.028 68.514,139.508 68.229,139.999 67.881 C 144.968 64.357,157.110 58.985,167.431 55.746 C 171.110 54.591,178.813 53.000,185.558 52.001 C 194.330 50.702,214.535 51.554,223.678 53.608 C 264.764 62.838,297.798 92.348,310.106 130.814 C 311.991 136.706,312.913 140.276,313.834 145.256 C 314.142 146.919,314.545 149.062,314.730 150.019 C 318.119 167.522,315.104 192.612,307.331 211.587 C 305.630 215.741,305.147 215.268,315.922 220.007 C 324.618 223.832,325.671 224.123,326.722 222.996 C 328.026 221.595,332.415 209.181,334.496 201.008 C 339.651 180.752,339.734 153.661,334.697 134.845 C 334.449 133.921,333.986 132.183,333.666 130.982 C 332.603 126.983,330.006 119.000,329.133 117.045 C 328.968 116.675,328.202 114.861,327.431 113.014 C 324.698 106.466,321.151 99.753,316.540 92.402 C 315.095 90.099,308.855 81.525,307.220 79.597 C 306.672 78.950,305.452 77.515,304.508 76.406 C 290.699 60.192,270.181 45.684,250.378 38.131 C 249.085 37.638,247.498 37.025,246.851 36.769 C 232.863 31.220,208.270 27.583,192.611 28.746 M190.092 61.003 C 182.990 61.518,170.170 64.370,163.896 66.832 C 162.880 67.230,161.671 67.679,161.209 67.828 C 157.877 68.905,148.413 73.649,143.683 76.613 C 102.147 102.644,83.722 152.006,97.939 199.160 C 100.343 207.135,99.647 206.848,107.506 203.098 C 111.825 201.036,112.665 200.398,112.359 199.412 C 104.546 174.305,105.036 152.896,113.904 131.990 C 133.453 85.904,184.313 63.227,231.066 79.753 C 231.898 80.046,232.880 80.418,233.249 80.579 C 233.619 80.740,234.752 81.207,235.768 81.617 C 257.754 90.496,276.970 109.970,286.137 132.662 C 288.739 139.105,290.063 143.905,291.830 153.317 C 294.516 167.619,291.853 189.554,285.790 203.068 C 284.428 206.104,284.400 206.043,287.909 207.692 C 297.424 212.163,296.922 212.177,298.884 207.389 C 300.793 202.730,301.326 201.159,302.868 195.634 C 313.908 156.088,300.230 112.162,268.682 85.843 C 267.112 84.533,265.751 83.385,265.659 83.291 C 263.573 81.167,252.373 74.159,246.516 71.313 C 237.881 67.117,226.031 63.288,218.136 62.144 C 216.843 61.956,214.954 61.646,213.938 61.454 C 212.081 61.104,193.543 60.753,190.092 61.003 M189.757 84.627 C 183.116 85.492,178.220 86.624,172.796 88.549 C 171.503 89.008,169.963 89.529,169.373 89.706 C 164.988 91.027,153.454 97.763,147.775 102.319 C 120.791 123.970,109.649 161.275,120.614 193.256 C 121.749 196.569,121.751 196.570,126.725 194.190 C 131.559 191.878,131.433 192.081,130.307 188.413 C 127.149 178.129,126.376 161.752,128.641 153.149 C 128.811 152.502,129.266 150.692,129.652 149.127 C 131.193 142.880,135.517 132.581,137.563 130.284 C 137.823 129.993,138.035 129.646,138.035 129.513 C 138.035 128.356,144.446 120.272,148.825 115.909 C 166.906 97.891,193.952 90.521,217.968 97.067 C 219.353 97.445,221.016 97.893,221.662 98.062 C 241.267 103.204,261.363 122.818,268.469 143.745 C 273.818 159.496,273.663 178.689,268.078 192.443 C 265.695 198.310,265.559 197.903,270.656 200.150 C 273.253 201.295,274.894 201.839,275.330 201.701 C 276.940 201.190,280.338 190.831,282.333 180.353 C 283.230 175.641,283.228 159.478,282.329 154.660 C 275.638 118.796,251.793 93.698,216.793 85.679 C 209.510 84.011,197.947 83.561,189.757 84.627 M198.908 107.713 C 199.416 107.790,200.248 107.790,200.756 107.713 C 201.264 107.636,200.848 107.573,199.832 107.573 C 198.816 107.573,198.401 107.636,198.908 107.713 M156.995 121.998 L 155.668 123.426 157.095 122.098 C 158.422 120.863,158.677 120.571,158.422 120.571 C 158.368 120.571,157.725 121.213,156.995 121.998 M210.225 132.914 L 209.068 134.173 210.327 133.016 C 211.500 131.938,211.741 131.654,211.485 131.654 C 211.429 131.654,210.862 132.221,210.225 132.914 M153.484 135.118 C 153.484 135.175,153.976 135.667,154.576 136.209 L 155.668 137.196 154.681 136.104 C 153.762 135.087,153.484 134.858,153.484 135.118 M199.416 137.265 C 199.834 137.346,200.438 137.343,200.760 137.258 C 201.081 137.174,200.739 137.109,200.000 137.112 C 199.261 137.116,198.998 137.185,199.416 137.265 M156.843 138.476 C 156.843 138.534,157.334 139.025,157.935 139.568 L 159.026 140.554 158.040 139.463 C 157.120 138.445,156.843 138.217,156.843 138.476 M160.523 142.149 C 161.915 143.632,162.217 143.899,162.217 143.647 C 162.217 143.593,161.499 142.875,160.621 142.051 L 159.026 140.554 160.523 142.149 M165.743 147.439 C 166.840 148.547,167.813 149.454,167.905 149.454 C 167.997 149.454,167.176 148.547,166.079 147.439 C 164.982 146.331,164.009 145.424,163.917 145.424 C 163.825 145.424,164.646 146.331,165.743 147.439 M175.987 157.683 C 180.325 162.024,183.949 165.575,184.042 165.575 C 184.134 165.575,180.660 162.024,176.322 157.683 C 171.984 153.342,168.360 149.790,168.267 149.790 C 168.175 149.790,171.649 153.342,175.987 157.683 M189.241 193.955 C 189.241 203.375,189.284 207.278,189.336 202.626 C 189.389 197.975,189.389 190.267,189.336 185.498 C 189.284 180.728,189.241 184.534,189.241 193.955 " stroke="none" fill="#f3b436" fill-rule="evenodd"></path><path id="path2" d="M0.000 167.926 L 0.000 335.852 200.000 335.852 L 400.000 335.852 400.000 167.926 L 400.000 0.000 200.000 0.000 L 0.000 0.000 0.000 167.926 M210.579 28.541 C 215.717 28.874,220.105 29.450,226.196 30.589 C 232.461 31.760,236.332 32.790,243.883 35.295 C 250.135 37.370,259.030 41.076,263.290 43.382 C 268.950 46.445,270.252 47.169,271.537 47.971 C 290.209 59.615,304.899 73.811,316.427 91.352 C 318.971 95.224,319.319 95.812,322.605 101.810 C 329.860 115.049,335.368 131.874,337.653 147.775 C 340.683 168.871,338.686 191.373,332.006 211.380 C 328.938 220.568,327.350 223.836,325.787 224.179 C 324.669 224.425,308.175 217.512,306.717 216.187 C 305.662 215.228,305.762 214.244,307.315 210.260 C 316.471 186.765,318.001 160.043,311.498 137.196 C 310.231 132.742,310.013 132.044,308.981 129.135 C 288.967 72.681,229.581 40.646,171.788 55.127 C 161.898 57.605,151.134 61.938,142.737 66.820 C 94.204 95.039,72.654 151.684,90.345 204.534 C 92.311 210.407,92.275 210.649,89.198 212.075 C 88.259 212.511,85.600 213.733,83.291 214.791 C 80.982 215.849,77.884 217.278,76.406 217.967 C 70.805 220.578,70.907 220.648,68.083 212.259 C 65.169 203.599,64.204 199.689,62.322 188.917 C 60.408 177.966,60.398 156.692,62.301 146.096 C 62.550 144.710,62.853 142.897,62.975 142.065 C 63.097 141.234,63.327 140.025,63.487 139.379 C 63.646 138.732,64.016 137.145,64.308 135.852 C 75.062 88.287,112.306 48.279,158.858 34.285 C 160.798 33.702,163.065 33.014,163.896 32.755 C 164.727 32.497,166.238 32.112,167.254 31.899 C 168.270 31.686,170.462 31.226,172.124 30.876 C 183.280 28.526,197.261 27.678,210.579 28.541 M208.377 60.468 C 218.601 61.228,227.450 63.226,238.682 67.312 C 240.843 68.098,246.754 70.797,249.194 72.112 C 253.975 74.689,255.218 75.426,258.774 77.788 C 280.697 92.350,295.581 112.788,303.261 138.875 C 309.543 160.211,307.998 186.664,299.228 207.932 C 297.440 212.269,297.078 212.360,291.497 209.882 C 283.484 206.325,283.837 206.793,285.664 202.151 C 292.531 184.703,294.136 165.010,290.136 147.271 C 289.259 143.382,287.959 138.883,286.982 136.356 C 286.731 135.709,286.124 134.123,285.631 132.830 C 268.711 88.426,217.617 64.645,171.117 79.529 C 155.175 84.632,140.252 94.733,129.090 107.976 C 122.663 115.601,116.389 126.264,113.348 134.731 C 111.205 140.694,109.620 146.438,108.820 151.134 C 108.615 152.334,108.278 154.299,108.071 155.500 C 107.320 159.842,107.563 176.882,108.447 181.864 C 109.483 187.700,111.041 193.930,112.312 197.313 C 113.588 200.710,113.351 200.986,106.449 204.136 C 99.867 207.140,99.934 207.166,97.942 200.840 C 91.593 180.670,90.946 159.285,96.115 140.386 C 96.494 139.001,96.913 137.414,97.047 136.860 C 98.328 131.543,104.661 117.101,107.629 112.727 C 108.097 112.037,108.480 111.415,108.480 111.345 C 108.480 111.079,112.029 105.856,113.964 103.275 C 125.979 87.246,141.837 75.084,160.537 67.555 C 175.078 61.701,191.743 59.232,208.377 60.468 M211.428 84.294 C 263.413 91.685,296.073 144.473,279.402 194.162 C 276.516 202.764,275.990 203.255,271.823 201.226 C 270.742 200.700,269.127 199.982,268.234 199.631 C 265.665 198.620,265.412 197.781,266.703 194.556 C 285.744 146.994,250.967 95.382,199.878 95.382 C 159.989 95.382,127.578 127.865,127.628 167.792 C 127.636 174.141,129.387 184.652,131.334 190.035 C 131.994 191.859,131.416 192.583,128.051 194.149 C 126.431 194.903,124.666 195.734,124.130 195.997 C 121.825 197.124,121.094 196.524,119.794 192.434 C 110.283 162.525,119.002 128.723,141.858 106.902 C 160.522 89.081,186.263 80.717,211.428 84.294 M203.153 107.493 C 212.679 109.689,217.760 120.019,213.643 128.818 C 207.357 142.249,187.415 139.458,184.987 124.806 C 183.256 114.357,192.931 105.136,203.153 107.493 M164.400 119.805 C 164.954 120.070,172.072 126.997,180.218 135.197 C 201.712 156.834,198.052 156.864,219.983 134.871 C 238.905 115.895,237.535 116.527,244.619 123.521 C 251.899 130.708,252.512 129.404,232.377 149.551 C 214.836 167.102,214.833 167.106,213.115 170.488 C 211.043 174.569,211.124 173.711,210.928 193.619 L 210.747 212.091 209.941 213.221 C 208.453 215.308,207.218 215.601,199.905 215.610 C 188.231 215.623,188.709 216.608,188.770 192.652 C 188.832 168.938,190.754 172.909,168.265 150.294 C 149.861 131.786,150.798 132.858,150.798 130.286 C 150.798 127.990,151.366 127.130,155.740 122.820 C 159.665 118.951,161.376 118.356,164.400 119.805 M142.401 207.046 C 149.196 207.719,154.035 208.887,161.881 211.745 C 167.920 213.945,176.088 218.690,188.245 227.062 C 196.762 232.926,203.290 235.965,210.915 237.615 C 217.049 238.943,223.738 240.853,226.868 242.171 C 242.337 248.685,247.429 256.695,242.403 266.611 C 237.770 275.754,227.530 276.688,208.732 269.683 C 201.397 266.950,200.511 266.592,192.947 263.309 C 172.325 254.359,160.465 251.430,159.929 255.155 C 159.668 256.966,160.763 257.671,166.398 259.321 C 173.226 261.320,181.098 264.140,185.726 266.244 C 186.742 266.706,188.178 267.349,188.917 267.673 C 189.656 267.997,191.394 268.793,192.779 269.442 C 199.100 272.403,201.258 273.384,201.461 273.386 C 201.581 273.387,202.116 273.615,202.649 273.894 C 204.018 274.608,210.741 276.850,215.113 278.051 C 230.442 282.261,239.546 280.678,245.655 272.740 C 255.399 260.076,249.912 245.728,232.746 238.985 C 230.991 238.296,229.177 237.577,228.715 237.387 C 227.144 236.741,221.506 235.056,217.128 233.924 C 208.700 231.745,205.206 230.568,205.206 229.909 C 205.206 229.835,206.679 228.755,208.480 227.509 C 211.728 225.262,213.318 224.043,224.013 215.595 C 234.500 207.311,237.851 205.707,241.958 207.001 C 247.759 208.830,248.344 212.863,243.593 218.270 C 242.360 219.674,241.039 221.191,240.658 221.642 L 239.966 222.460 240.823 221.810 C 241.294 221.452,243.730 219.448,246.236 217.357 C 254.903 210.124,257.868 208.476,262.301 208.428 C 268.951 208.355,273.487 213.894,270.525 218.472 C 269.602 219.899,264.683 226.532,262.992 228.631 C 262.211 229.601,261.681 230.395,261.815 230.395 C 262.065 230.395,262.810 229.740,268.454 224.561 C 275.922 217.708,278.212 216.487,283.627 216.469 C 288.770 216.452,291.733 218.173,293.009 221.920 C 294.418 226.052,293.423 228.015,283.311 241.071 C 282.155 242.564,283.355 241.714,286.551 238.777 C 291.378 234.340,295.808 230.668,298.573 228.813 C 308.223 222.337,320.351 226.309,319.670 235.722 C 319.500 238.070,318.725 239.700,315.466 244.561 C 298.225 270.280,272.105 290.200,243.493 299.451 C 237.675 301.332,233.652 302.482,231.906 302.763 C 231.167 302.882,230.109 303.118,229.555 303.288 C 222.778 305.364,205.868 306.745,193.283 306.251 C 151.459 304.607,112.475 283.478,87.101 248.699 C 80.250 239.309,78.830 232.933,82.627 228.619 C 85.125 225.781,104.144 215.270,114.022 211.268 C 114.391 211.118,115.298 210.752,116.037 210.453 C 120.021 208.845,125.608 207.541,130.647 207.043 C 136.266 206.488,136.773 206.488,142.401 207.046 M338.707 292.983 C 340.539 293.471,342.445 294.370,343.157 295.082 C 343.406 295.331,343.884 295.727,344.220 295.962 C 346.002 297.211,347.947 301.638,347.939 304.427 C 347.908 315.050,335.109 320.544,327.686 313.120 C 326.820 312.255,326.113 311.348,326.113 311.105 C 326.113 310.862,325.993 310.663,325.846 310.663 C 325.200 310.663,324.266 306.733,324.289 304.114 C 324.356 296.702,331.620 291.094,338.707 292.983 M332.724 296.202 C 324.048 300.250,326.546 313.686,335.974 313.686 C 343.651 313.686,347.268 305.251,342.495 298.478 C 340.660 295.874,335.836 294.750,332.724 296.202 M336.237 297.896 C 340.349 297.905,342.370 302.194,339.557 304.944 L 338.560 305.919 340.036 308.363 C 341.743 311.190,341.722 311.335,339.609 311.335 C 338.207 311.335,337.985 311.231,337.619 310.402 C 337.018 309.046,335.409 306.633,335.105 306.633 C 334.962 306.633,334.845 307.700,334.845 309.003 L 334.845 311.374 333.417 311.270 L 331.990 311.167 331.898 304.829 C 331.801 298.101,331.952 297.340,333.310 297.705 C 333.692 297.808,335.009 297.894,336.237 297.896 M334.845 301.931 C 334.845 303.805,335.570 304.174,337.121 303.088 C 338.517 302.109,337.614 300.252,335.742 300.252 C 334.889 300.252,334.845 300.335,334.845 301.931 " stroke="none" fill="#f6f6f5" fill-rule="evenodd"></path><path id="path3" d="M194.905 108.441 C 179.400 114.178,183.473 136.890,200.000 136.850 C 215.577 136.813,220.354 116.585,206.540 109.159 C 203.752 107.660,197.978 107.304,194.905 108.441 M159.362 120.195 C 157.156 121.571,151.541 127.738,151.294 129.056 C 150.715 132.141,150.130 131.430,168.215 149.622 C 185.861 167.373,186.260 167.836,188.402 173.109 L 189.230 175.147 189.409 193.619 L 189.589 212.091 190.348 213.156 C 191.700 215.051,193.115 215.336,200.576 215.218 L 207.160 215.113 208.450 214.074 C 210.553 212.379,210.539 212.513,210.560 193.719 C 210.581 175.140,210.633 174.526,212.488 170.800 C 214.307 167.146,214.151 167.317,231.595 149.790 C 252.101 129.187,251.290 130.771,244.736 124.120 C 240.202 119.520,238.393 118.710,235.727 120.088 C 235.169 120.377,228.187 127.191,220.211 135.230 C 203.045 152.533,203.000 152.565,197.622 151.473 L 195.634 151.069 180.353 135.868 C 162.201 117.812,162.647 118.145,159.362 120.195 " stroke="none" fill="#e23d2e" fill-rule="evenodd"></path><path id="path4" d="M188.413 28.563 C 184.189 28.837,176.868 29.877,172.124 30.876 C 170.462 31.226,168.270 31.686,167.254 31.899 C 166.238 32.112,164.727 32.497,163.896 32.755 C 163.065 33.014,160.798 33.702,158.858 34.285 C 112.306 48.279,75.062 88.287,64.308 135.852 C 64.016 137.145,63.646 138.732,63.487 139.379 C 63.327 140.025,63.097 141.234,62.975 142.065 C 62.853 142.897,62.550 144.710,62.301 146.096 C 60.398 156.692,60.408 177.966,62.322 188.917 C 64.204 199.689,65.169 203.599,68.083 212.259 C 70.907 220.648,70.805 220.578,76.406 217.967 C 77.884 217.278,80.982 215.849,83.291 214.791 C 93.278 210.214,92.584 211.223,90.345 204.534 C 71.756 149.002,96.781 89.204,149.454 63.290 C 155.094 60.515,161.085 58.205,168.094 56.102 C 184.785 51.095,206.821 50.340,224.013 54.187 C 263.799 63.088,295.470 91.025,308.981 129.135 C 310.013 132.044,310.231 132.742,311.498 137.196 C 318.001 160.043,316.471 186.765,307.315 210.260 C 305.034 216.112,304.634 215.640,316.129 220.636 C 325.974 224.915,326.211 224.955,327.598 222.559 C 330.238 218.000,334.371 204.874,336.288 194.962 C 342.229 164.244,338.714 136.139,325.287 107.016 C 324.482 105.269,322.853 102.210,319.898 96.893 C 310.769 80.469,292.909 61.769,275.735 50.656 C 270.570 47.314,270.761 47.425,263.290 43.382 C 257.198 40.084,243.334 34.724,235.936 32.805 C 229.798 31.213,225.424 30.329,218.976 29.377 C 211.639 28.295,198.099 27.934,188.413 28.563 M214.610 29.366 C 226.020 30.650,238.858 33.598,246.851 36.769 C 247.498 37.025,249.085 37.638,250.378 38.131 C 270.181 45.684,290.699 60.192,304.508 76.406 C 305.452 77.515,306.672 78.950,307.220 79.597 C 314.439 88.112,322.824 101.975,327.431 113.014 C 328.202 114.861,328.968 116.675,329.133 117.045 C 330.006 119.000,332.603 126.983,333.666 130.982 C 333.986 132.183,334.449 133.921,334.697 134.845 C 339.734 153.661,339.651 180.752,334.496 201.008 C 332.415 209.181,328.026 221.595,326.722 222.996 C 325.671 224.123,324.618 223.832,315.922 220.007 C 305.147 215.268,305.630 215.741,307.331 211.587 C 315.104 192.612,318.119 167.522,314.730 150.019 C 314.545 149.062,314.142 146.919,313.834 145.256 C 312.913 140.276,311.991 136.706,310.106 130.814 C 297.798 92.348,264.764 62.838,223.678 53.608 C 214.535 51.554,194.330 50.702,185.558 52.001 C 178.813 53.000,171.110 54.591,167.431 55.746 C 157.110 58.985,144.968 64.357,139.999 67.881 C 139.508 68.229,139.028 68.514,138.931 68.514 C 138.667 68.514,134.848 71.079,131.990 73.175 C 108.925 90.094,93.433 113.238,87.001 140.386 C 81.875 162.020,82.810 184.173,89.688 204.030 C 91.990 210.679,92.294 210.212,82.939 214.406 C 81.748 214.940,79.050 216.187,76.945 217.176 C 70.997 219.972,71.130 220.060,68.342 211.538 C 61.816 191.589,59.764 171.852,62.114 151.637 C 68.018 100.855,101.918 56.480,148.615 38.409 C 150.277 37.766,152.166 37.028,152.813 36.771 C 155.329 35.768,161.592 33.888,166.079 32.788 C 176.250 30.295,180.524 29.644,192.611 28.746 C 196.171 28.481,210.289 28.879,214.610 29.366 M190.764 60.480 C 181.177 61.213,169.506 63.944,160.537 67.555 C 141.837 75.084,125.979 87.246,113.964 103.275 C 112.029 105.856,108.480 111.079,108.480 111.345 C 108.480 111.415,108.097 112.037,107.629 112.727 C 104.661 117.101,98.328 131.543,97.047 136.860 C 96.913 137.414,96.494 139.001,96.115 140.386 C 91.426 157.533,91.597 178.956,96.563 196.306 C 99.777 207.533,99.495 207.310,106.449 204.136 C 113.351 200.986,113.588 200.710,112.312 197.313 C 108.372 186.825,106.258 165.983,108.071 155.500 C 108.278 154.299,108.615 152.334,108.820 151.134 C 109.620 146.438,111.205 140.694,113.348 134.731 C 131.737 83.538,193.754 59.905,242.682 85.444 C 261.793 95.419,278.327 113.661,285.631 132.830 C 286.124 134.123,286.731 135.709,286.982 136.356 C 288.582 140.492,290.293 147.226,291.421 153.820 C 292.391 159.496,292.293 176.300,291.255 182.135 C 289.887 189.829,288.356 195.311,285.664 202.151 C 283.837 206.793,283.484 206.325,291.497 209.882 C 297.078 212.360,297.440 212.269,299.228 207.932 C 307.998 186.664,309.543 160.211,303.261 138.875 C 295.581 112.788,280.697 92.350,258.774 77.788 C 255.218 75.426,253.975 74.689,249.194 72.112 C 246.754 70.797,240.843 68.098,238.682 67.312 C 222.076 61.271,207.539 59.199,190.764 60.480 M213.938 61.454 C 214.954 61.646,216.843 61.956,218.136 62.144 C 226.031 63.288,237.881 67.117,246.516 71.313 C 252.373 74.159,263.573 81.167,265.659 83.291 C 265.751 83.385,267.112 84.533,268.682 85.843 C 300.230 112.162,313.908 156.088,302.868 195.634 C 301.326 201.159,300.793 202.730,298.884 207.389 C 296.922 212.177,297.424 212.163,287.909 207.692 C 284.400 206.043,284.428 206.104,285.790 203.068 C 291.853 189.554,294.516 167.619,291.830 153.317 C 289.614 141.517,287.857 135.920,283.606 127.120 C 273.731 106.680,255.952 89.768,235.768 81.617 C 234.752 81.207,233.619 80.740,233.249 80.579 C 225.191 77.075,210.772 74.391,200.000 74.391 C 164.611 74.391,131.796 94.841,116.464 126.448 C 105.087 149.904,103.841 172.041,112.359 199.412 C 112.665 200.398,111.825 201.036,107.506 203.098 C 99.647 206.848,100.343 207.135,97.939 199.160 C 85.637 158.357,97.747 115.103,129.224 87.415 C 138.547 79.215,152.597 70.611,161.209 67.828 C 161.671 67.679,162.880 67.230,163.896 66.832 C 170.170 64.370,182.990 61.518,190.092 61.003 C 193.543 60.753,212.081 61.104,213.938 61.454 M188.749 84.170 C 144.689 90.643,113.816 128.232,116.235 172.460 C 116.525 177.766,116.615 178.561,117.413 182.872 C 119.518 194.255,121.154 197.452,124.130 195.997 C 124.666 195.734,126.431 194.903,128.051 194.149 C 131.416 192.583,131.994 191.859,131.334 190.035 C 118.245 153.843,140.143 110.721,177.666 98.793 C 235.942 80.268,289.428 137.793,266.703 194.556 C 265.412 197.781,265.665 198.620,268.234 199.631 C 269.127 199.982,270.742 200.700,271.823 201.226 C 275.990 203.255,276.516 202.764,279.402 194.162 C 296.073 144.473,263.413 91.685,211.428 84.294 C 205.737 83.485,193.852 83.420,188.749 84.170 M210.076 84.636 C 242.183 88.835,268.605 110.363,278.706 140.554 C 280.449 145.764,281.255 148.902,282.329 154.660 C 283.228 159.478,283.230 175.641,282.333 180.353 C 280.338 190.831,276.940 201.190,275.330 201.701 C 274.894 201.839,273.253 201.295,270.656 200.150 C 266.054 198.121,265.878 197.877,267.007 195.086 C 267.409 194.094,267.890 192.905,268.078 192.443 C 273.663 178.689,273.818 159.496,268.469 143.745 C 261.363 122.818,241.267 103.204,221.662 98.062 C 221.016 97.893,219.353 97.445,217.968 97.067 C 193.952 90.521,166.906 97.891,148.825 115.909 C 144.446 120.272,138.035 128.356,138.035 129.513 C 138.035 129.646,137.823 129.993,137.563 130.284 C 135.517 132.581,131.193 142.880,129.652 149.127 C 129.266 150.692,128.811 152.502,128.641 153.149 C 126.376 161.752,127.149 178.129,130.307 188.413 C 131.433 192.081,131.559 191.878,126.725 194.190 C 121.751 196.570,121.749 196.569,120.614 193.256 C 109.649 161.275,120.791 123.970,147.775 102.319 C 153.454 97.763,164.988 91.027,169.373 89.706 C 169.963 89.529,171.503 89.008,172.796 88.549 C 184.267 84.477,197.912 83.045,210.076 84.636 M196.722 107.459 C 196.027 107.594,195.347 107.824,195.210 107.971 C 195.074 108.119,195.346 108.147,195.816 108.035 C 202.911 106.339,210.544 109.728,213.264 115.782 C 213.699 116.751,214.125 117.473,214.210 117.388 C 214.629 116.969,212.255 113.299,210.441 111.564 C 206.626 107.914,201.809 106.472,196.722 107.459 M192.797 108.905 C 183.105 113.778,182.243 130.477,191.450 134.982 L 192.275 135.386 191.436 134.684 C 182.435 127.155,183.224 114.531,193.029 109.211 C 195.237 108.013,195.054 107.770,192.797 108.905 M214.442 122.191 C 214.442 128.601,212.106 132.661,206.717 135.620 C 205.609 136.228,205.080 136.627,205.542 136.505 C 210.958 135.079,215.810 127.139,215.073 120.907 C 214.664 117.457,214.442 117.910,214.442 122.191 M160.226 119.408 C 158.682 119.881,153.876 124.245,151.769 127.086 C 150.608 128.652,150.401 131.579,151.349 133.007 C 151.653 133.463,159.262 141.243,168.259 150.294 C 187.474 169.624,188.164 170.535,188.743 177.330 L 188.986 180.185 189.035 177.802 C 189.091 175.115,188.380 172.643,186.684 169.626 C 185.115 166.836,185.537 167.286,167.929 149.599 C 150.168 131.758,150.794 132.519,151.227 129.292 C 151.435 127.740,157.108 121.330,159.265 120.210 C 162.969 118.287,162.774 118.144,179.681 135.167 C 193.077 148.654,196.189 151.504,197.463 151.446 C 197.750 151.433,197.321 151.127,196.510 150.768 C 195.399 150.274,191.383 146.437,180.221 135.200 C 163.580 118.447,163.519 118.400,160.226 119.408 M237.112 119.228 C 236.449 119.440,236.627 119.499,237.951 119.506 C 239.179 119.514,239.450 119.439,238.959 119.228 C 238.162 118.885,238.181 118.885,237.112 119.228 M219.992 134.830 C 208.786 146.018,204.298 150.285,203.191 150.805 C 202.071 151.331,201.938 151.459,202.675 151.300 C 204.482 150.909,206.582 148.968,220.151 135.150 C 227.540 127.626,234.175 121.041,234.895 120.517 C 235.615 119.992,235.997 119.563,235.743 119.563 C 235.489 119.563,228.401 126.433,219.992 134.830 M240.302 119.950 C 242.041 120.898,248.218 127.481,248.562 128.753 C 249.442 132.009,250.115 131.172,231.921 149.454 C 222.821 158.598,214.887 166.806,214.290 167.695 C 212.835 169.862,211.351 173.194,211.115 174.825 C 210.932 176.091,210.944 176.079,211.385 174.568 C 213.015 168.986,213.335 168.605,232.377 149.551 C 250.156 131.761,250.227 131.669,248.739 128.201 C 248.201 126.948,240.803 119.558,240.102 119.574 C 239.813 119.580,239.890 119.725,240.302 119.950 M192.587 135.645 C 193.487 137.102,202.244 138.184,204.057 137.062 C 204.626 136.710,204.583 136.682,203.694 136.827 C 200.565 137.338,199.772 137.367,197.740 137.042 C 196.512 136.846,194.810 136.387,193.958 136.022 C 193.106 135.657,192.489 135.487,192.587 135.645 M199.416 151.707 C 199.834 151.787,200.438 151.784,200.760 151.700 C 201.081 151.616,200.739 151.550,200.000 151.554 C 199.261 151.558,198.998 151.627,199.416 151.707 M210.736 193.787 C 210.736 203.484,210.779 207.452,210.831 202.603 C 210.883 197.754,210.883 189.819,210.831 184.971 C 210.779 180.122,210.736 184.089,210.736 193.787 M188.903 196.138 C 188.903 203.988,188.947 207.200,189.000 203.275 C 189.054 199.349,189.054 192.926,189.000 189.001 C 188.947 185.076,188.903 188.287,188.903 196.138 M135.600 206.792 C 136.201 206.867,137.183 206.867,137.783 206.792 C 138.384 206.718,137.893 206.657,136.692 206.657 C 135.491 206.657,135.000 206.718,135.600 206.792 M239.043 206.786 C 239.458 206.866,240.139 206.866,240.554 206.786 C 240.970 206.706,240.630 206.641,239.798 206.641 C 238.967 206.641,238.627 206.706,239.043 206.786 M261.717 208.469 C 262.228 208.547,262.984 208.545,263.397 208.465 C 263.810 208.385,263.392 208.322,262.469 208.324 C 261.545 208.327,261.207 208.392,261.717 208.469 M189.254 211.755 C 189.932 214.938,191.914 215.633,200.073 215.549 L 206.717 215.481 199.664 215.297 C 191.645 215.088,191.010 214.886,189.695 212.124 C 189.146 210.973,189.074 210.912,189.254 211.755 M246.600 212.427 C 246.604 213.165,246.673 213.428,246.753 213.010 C 246.833 212.593,246.830 211.988,246.746 211.667 C 246.662 211.346,246.597 211.688,246.600 212.427 M209.929 212.544 C 209.669 213.171,208.910 213.961,208.101 214.445 C 206.590 215.351,206.671 215.583,208.219 214.783 C 209.313 214.217,210.697 212.445,210.502 211.860 C 210.431 211.646,210.173 211.954,209.929 212.544 M242.632 219.060 L 241.646 220.151 242.737 219.165 C 243.338 218.622,243.829 218.131,243.829 218.073 C 243.829 217.814,243.552 218.042,242.632 219.060 M240.661 221.301 C 240.105 221.916,240.105 221.943,240.665 221.861 C 240.989 221.813,241.291 221.523,241.336 221.215 C 241.440 220.504,241.375 220.512,240.661 221.301 M293.295 224.517 C 293.298 225.441,293.363 225.779,293.440 225.268 C 293.517 224.758,293.515 224.002,293.435 223.589 C 293.356 223.176,293.293 223.594,293.295 224.517 M263.455 229.135 L 262.469 230.227 263.560 229.240 C 264.160 228.698,264.652 228.207,264.652 228.149 C 264.652 227.889,264.374 228.118,263.455 229.135 M319.503 235.097 C 319.503 236.297,319.564 236.788,319.638 236.188 C 319.713 235.588,319.713 234.605,319.638 234.005 C 319.564 233.405,319.503 233.896,319.503 235.097 M288.644 236.860 L 287.657 237.951 288.749 236.965 C 289.349 236.422,289.840 235.931,289.840 235.873 C 289.840 235.614,289.563 235.842,288.644 236.860 M284.614 240.554 L 283.627 241.646 284.719 240.659 C 285.319 240.117,285.810 239.626,285.810 239.568 C 285.810 239.308,285.533 239.537,284.614 240.554 M243.997 245.844 C 245.093 246.952,246.066 247.859,246.159 247.859 C 246.251 247.859,245.429 246.952,244.332 245.844 C 243.236 244.736,242.263 243.829,242.170 243.829 C 242.078 243.829,242.900 244.736,243.997 245.844 M301.742 261.713 L 300.756 262.804 301.847 261.818 C 302.448 261.275,302.939 260.784,302.939 260.726 C 302.939 260.467,302.662 260.695,301.742 261.713 M104.786 268.787 C 104.786 268.845,105.277 269.336,105.877 269.878 L 106.969 270.865 105.983 269.773 C 105.063 268.756,104.786 268.527,104.786 268.787 M227.297 274.302 C 228.087 274.373,229.296 274.372,229.984 274.300 C 230.672 274.227,230.025 274.169,228.547 274.171 C 227.070 274.172,226.507 274.231,227.297 274.302 M228.463 280.668 C 228.787 280.753,229.316 280.753,229.639 280.668 C 229.962 280.584,229.698 280.515,229.051 280.515 C 228.405 280.515,228.140 280.584,228.463 280.668 M335.432 292.764 C 335.848 292.844,336.528 292.844,336.944 292.764 C 337.359 292.684,337.019 292.619,336.188 292.619 C 335.357 292.619,335.017 292.684,335.432 292.764 M335.097 295.451 C 335.512 295.531,336.192 295.531,336.608 295.451 C 337.024 295.371,336.683 295.306,335.852 295.306 C 335.021 295.306,334.681 295.371,335.097 295.451 M344.560 296.725 C 345.375 297.649,346.113 298.480,346.198 298.573 C 346.284 298.665,346.186 298.438,345.979 298.069 C 345.476 297.169,344.908 296.524,343.910 295.718 C 343.452 295.348,343.745 295.802,344.560 296.725 M332.529 295.914 C 332.086 296.091,331.809 296.320,331.911 296.423 C 332.014 296.526,332.527 296.378,333.052 296.093 C 334.107 295.522,333.785 295.412,332.529 295.914 M326.251 297.742 C 325.754 298.394,325.406 298.982,325.478 299.048 C 325.550 299.115,326.023 298.582,326.529 297.864 C 327.678 296.233,327.471 296.143,326.251 297.742 M329.993 297.692 C 328.827 298.859,327.617 300.860,327.904 301.148 C 327.993 301.237,328.174 300.970,328.306 300.555 C 328.438 300.139,329.228 299.070,330.062 298.178 C 331.780 296.342,331.726 295.959,329.993 297.692 M332.191 298.028 C 331.925 298.349,331.835 300.439,331.898 304.829 L 331.990 311.167 333.333 311.196 L 334.677 311.225 333.417 311.093 L 332.158 310.961 332.158 304.588 C 332.158 298.293,332.167 298.211,332.914 297.911 C 333.425 297.706,333.492 297.601,333.123 297.586 C 332.822 297.575,332.403 297.774,332.191 298.028 M336.860 298.031 C 336.860 298.102,337.305 298.226,337.850 298.306 C 338.394 298.386,338.763 298.327,338.669 298.176 C 338.503 297.907,336.860 297.775,336.860 298.031 M342.574 298.267 C 342.572 298.376,343.020 299.283,343.571 300.282 C 344.673 302.282,344.980 302.317,343.926 300.322 C 343.148 298.852,342.582 297.990,342.574 298.267 M324.613 300.840 C 324.487 301.163,324.327 302.485,324.257 303.778 L 324.130 306.129 324.420 303.886 C 324.579 302.651,324.808 301.329,324.930 300.947 C 325.197 300.104,324.933 300.015,324.613 300.840 M327.329 302.112 C 327.214 302.412,327.140 303.212,327.165 303.890 C 327.205 304.990,327.236 304.943,327.452 303.442 C 327.710 301.655,327.670 301.224,327.329 302.112 M233.249 302.267 C 232.826 302.449,232.764 302.556,233.081 302.556 C 233.359 302.556,233.887 302.426,234.257 302.267 C 234.680 302.085,234.742 301.978,234.425 301.978 C 234.148 301.978,233.619 302.108,233.249 302.267 M337.294 302.975 C 337.089 303.179,336.417 303.466,335.799 303.612 C 334.795 303.850,334.770 303.881,335.563 303.912 C 336.268 303.939,338.531 302.655,337.851 302.614 C 337.749 302.608,337.498 302.770,337.294 302.975 M347.711 304.450 C 347.713 305.558,347.776 305.971,347.850 305.368 C 347.925 304.764,347.924 303.857,347.847 303.353 C 347.770 302.848,347.709 303.342,347.711 304.450 M169.941 303.259 C 170.218 303.447,170.735 303.602,171.089 303.605 C 171.948 303.612,171.680 303.420,170.445 303.144 C 169.709 302.979,169.573 303.010,169.941 303.259 M344.685 304.618 C 344.685 305.634,344.748 306.050,344.825 305.542 C 344.902 305.034,344.902 304.202,344.825 303.694 C 344.748 303.186,344.685 303.602,344.685 304.618 M338.623 305.196 C 338.013 305.414,339.742 309.320,340.448 309.320 C 340.631 309.320,339.910 307.984,339.116 306.850 C 338.568 306.069,338.529 305.840,338.902 305.609 C 339.437 305.278,339.234 304.977,338.623 305.196 M327.125 306.157 C 327.128 306.696,327.275 307.364,327.452 307.641 C 327.670 307.984,327.707 307.716,327.567 306.801 C 327.312 305.141,327.118 304.858,327.125 306.157 M189.840 306.193 C 190.164 306.277,190.693 306.277,191.016 306.193 C 191.339 306.108,191.075 306.039,190.428 306.039 C 189.782 306.039,189.517 306.108,189.840 306.193 M199.416 306.535 C 199.834 306.615,200.438 306.612,200.760 306.528 C 201.081 306.444,200.739 306.378,200.000 306.382 C 199.261 306.386,198.998 306.454,199.416 306.535 M335.546 307.098 C 335.966 307.581,336.376 307.976,336.458 307.976 C 336.759 307.976,335.612 306.497,335.205 306.361 C 334.972 306.284,335.126 306.616,335.546 307.098 M337.028 309.320 C 337.314 309.874,337.624 310.327,337.717 310.327 C 337.809 310.327,337.650 309.874,337.364 309.320 C 337.077 308.766,336.767 308.312,336.675 308.312 C 336.582 308.312,336.741 308.766,337.028 309.320 M328.128 309.202 C 328.128 309.404,328.694 310.164,329.387 310.892 C 330.080 311.619,330.330 311.828,329.942 311.355 C 329.555 310.882,328.988 310.122,328.683 309.665 C 328.378 309.208,328.128 309.000,328.128 309.202 M340.902 310.278 C 341.283 311.061,341.271 311.067,339.577 310.950 C 338.636 310.885,337.867 310.945,337.867 311.083 C 337.867 311.433,341.145 311.401,341.363 311.049 C 341.461 310.891,341.310 310.476,341.029 310.125 C 340.548 309.526,340.540 309.536,340.902 310.278 M342.092 311.262 L 341.448 312.175 342.344 311.360 C 343.287 310.505,343.403 310.321,342.989 310.338 C 342.851 310.344,342.447 310.759,342.092 311.262 M344.025 312.886 C 342.887 314.065,342.024 315.029,342.109 315.029 C 342.402 315.029,345.645 311.864,345.965 311.265 C 346.414 310.426,346.351 310.479,344.025 312.886 M340.050 312.678 C 339.496 313.045,339.215 313.347,339.425 313.348 C 339.792 313.350,341.571 312.039,341.226 312.020 C 341.134 312.015,340.605 312.311,340.050 312.678 M328.836 314.184 C 330.290 315.338,332.384 316.339,331.982 315.688 C 331.872 315.510,331.576 315.365,331.324 315.365 C 331.072 315.365,330.173 314.836,329.326 314.190 C 327.326 312.663,326.913 312.658,328.836 314.184 M335.103 313.929 C 335.706 314.004,336.613 314.003,337.118 313.926 C 337.622 313.849,337.128 313.788,336.020 313.790 C 334.912 313.792,334.499 313.855,335.103 313.929 " stroke="none" fill="#f8da98" fill-rule="evenodd"></path></g></svg>